<mxfile host="app.diagrams.net" modified="2022-04-26T02:09:59.232Z" agent="5.0 (Windows NT 10.0; Win64; x64) AppleWebKit/537.36 (KHTML, like Gecko) Chrome/100.0.4896.127 Safari/537.36" etag="DtTOr-Tw2Qy1YTTFTK_I" version="17.4.6" type="github">
  <diagram id="EYAx-2xVytG1Fvd3LkRr" name="Page-1">
    <mxGraphModel dx="1423" dy="891" grid="1" gridSize="10" guides="1" tooltips="1" connect="1" arrows="1" fold="1" page="1" pageScale="1" pageWidth="1169" pageHeight="827" math="0" shadow="0">
      <root>
        <mxCell id="0" />
        <mxCell id="1" parent="0" />
        <mxCell id="Jc-0d1ceG-MSq5w1KdFc-4" value="AWS Cloud" style="points=[[0,0],[0.25,0],[0.5,0],[0.75,0],[1,0],[1,0.25],[1,0.5],[1,0.75],[1,1],[0.75,1],[0.5,1],[0.25,1],[0,1],[0,0.75],[0,0.5],[0,0.25]];outlineConnect=0;gradientColor=none;html=1;whiteSpace=wrap;fontSize=12;fontStyle=0;container=1;pointerEvents=0;collapsible=0;recursiveResize=0;shape=mxgraph.aws4.group;grIcon=mxgraph.aws4.group_aws_cloud_alt;strokeColor=#232F3E;fillColor=none;verticalAlign=top;align=left;spacingLeft=30;fontColor=#232F3E;dashed=0;" vertex="1" parent="1">
          <mxGeometry x="200" y="60" width="650" height="740" as="geometry" />
        </mxCell>
        <mxCell id="Jc-0d1ceG-MSq5w1KdFc-5" value="Us-east" style="points=[[0,0],[0.25,0],[0.5,0],[0.75,0],[1,0],[1,0.25],[1,0.5],[1,0.75],[1,1],[0.75,1],[0.5,1],[0.25,1],[0,1],[0,0.75],[0,0.5],[0,0.25]];outlineConnect=0;gradientColor=none;html=1;whiteSpace=wrap;fontSize=12;fontStyle=0;container=1;pointerEvents=0;collapsible=0;recursiveResize=0;shape=mxgraph.aws4.group;grIcon=mxgraph.aws4.group_region;strokeColor=#147EBA;fillColor=none;verticalAlign=top;align=left;spacingLeft=30;fontColor=#147EBA;dashed=1;" vertex="1" parent="1">
          <mxGeometry x="220" y="100" width="610" height="680" as="geometry" />
        </mxCell>
        <mxCell id="Jc-0d1ceG-MSq5w1KdFc-9" value="Availability Zone" style="fillColor=none;strokeColor=#147EBA;dashed=1;verticalAlign=top;fontStyle=0;fontColor=#147EBA;" vertex="1" parent="Jc-0d1ceG-MSq5w1KdFc-5">
          <mxGeometry x="350" y="30" width="235" height="630" as="geometry" />
        </mxCell>
        <mxCell id="Jc-0d1ceG-MSq5w1KdFc-6" value="Availability Zone" style="fillColor=none;strokeColor=#147EBA;dashed=1;verticalAlign=top;fontStyle=0;fontColor=#147EBA;" vertex="1" parent="Jc-0d1ceG-MSq5w1KdFc-5">
          <mxGeometry x="30" y="30" width="240" height="630" as="geometry" />
        </mxCell>
        <mxCell id="Jc-0d1ceG-MSq5w1KdFc-10" value="Public subnet" style="points=[[0,0],[0.25,0],[0.5,0],[0.75,0],[1,0],[1,0.25],[1,0.5],[1,0.75],[1,1],[0.75,1],[0.5,1],[0.25,1],[0,1],[0,0.75],[0,0.5],[0,0.25]];outlineConnect=0;gradientColor=none;html=1;whiteSpace=wrap;fontSize=12;fontStyle=0;container=1;pointerEvents=0;collapsible=0;recursiveResize=0;shape=mxgraph.aws4.group;grIcon=mxgraph.aws4.group_security_group;grStroke=0;strokeColor=#248814;fillColor=#E9F3E6;verticalAlign=top;align=left;spacingLeft=30;fontColor=#248814;dashed=0;" vertex="1" parent="Jc-0d1ceG-MSq5w1KdFc-5">
          <mxGeometry x="60" y="80" width="139" height="188" as="geometry" />
        </mxCell>
        <mxCell id="Jc-0d1ceG-MSq5w1KdFc-15" value="Bastion Host" style="sketch=0;outlineConnect=0;fontColor=#232F3E;gradientColor=none;fillColor=#D45B07;strokeColor=none;dashed=0;verticalLabelPosition=bottom;verticalAlign=top;align=center;html=1;fontSize=12;fontStyle=0;aspect=fixed;pointerEvents=1;shape=mxgraph.aws4.instance2;" vertex="1" parent="Jc-0d1ceG-MSq5w1KdFc-10">
          <mxGeometry x="55" y="93" width="29" height="29" as="geometry" />
        </mxCell>
        <mxCell id="Jc-0d1ceG-MSq5w1KdFc-16" value="Bastion host &#xa;Security group" style="fillColor=none;strokeColor=#DD3522;verticalAlign=top;fontStyle=0;fontColor=#DD3522;" vertex="1" parent="Jc-0d1ceG-MSq5w1KdFc-10">
          <mxGeometry x="15" y="40" width="109" height="109" as="geometry" />
        </mxCell>
        <mxCell id="Jc-0d1ceG-MSq5w1KdFc-29" value="" style="sketch=0;outlineConnect=0;fontColor=#232F3E;gradientColor=none;fillColor=#4D27AA;strokeColor=none;dashed=0;verticalLabelPosition=bottom;verticalAlign=top;align=center;html=1;fontSize=12;fontStyle=0;aspect=fixed;pointerEvents=1;shape=mxgraph.aws4.nat_gateway;" vertex="1" parent="Jc-0d1ceG-MSq5w1KdFc-10">
          <mxGeometry x="15" y="154" width="28" height="28" as="geometry" />
        </mxCell>
        <mxCell id="Jc-0d1ceG-MSq5w1KdFc-11" value="Public subnet" style="points=[[0,0],[0.25,0],[0.5,0],[0.75,0],[1,0],[1,0.25],[1,0.5],[1,0.75],[1,1],[0.75,1],[0.5,1],[0.25,1],[0,1],[0,0.75],[0,0.5],[0,0.25]];outlineConnect=0;gradientColor=none;html=1;whiteSpace=wrap;fontSize=12;fontStyle=0;container=1;pointerEvents=0;collapsible=0;recursiveResize=0;shape=mxgraph.aws4.group;grIcon=mxgraph.aws4.group_security_group;grStroke=0;strokeColor=#248814;fillColor=#E9F3E6;verticalAlign=top;align=left;spacingLeft=30;fontColor=#248814;dashed=0;" vertex="1" parent="Jc-0d1ceG-MSq5w1KdFc-5">
          <mxGeometry x="402.5" y="80" width="147.5" height="160" as="geometry" />
        </mxCell>
        <mxCell id="Jc-0d1ceG-MSq5w1KdFc-25" value="CLoud9&#xa;Security group" style="fillColor=none;strokeColor=#DD3522;verticalAlign=top;fontStyle=0;fontColor=#DD3522;" vertex="1" parent="Jc-0d1ceG-MSq5w1KdFc-11">
          <mxGeometry x="21.75" y="40" width="104" height="104" as="geometry" />
        </mxCell>
        <mxCell id="Jc-0d1ceG-MSq5w1KdFc-12" value="Private subnet" style="points=[[0,0],[0.25,0],[0.5,0],[0.75,0],[1,0],[1,0.25],[1,0.5],[1,0.75],[1,1],[0.75,1],[0.5,1],[0.25,1],[0,1],[0,0.75],[0,0.5],[0,0.25]];outlineConnect=0;gradientColor=none;html=1;whiteSpace=wrap;fontSize=12;fontStyle=0;container=1;pointerEvents=0;collapsible=0;recursiveResize=0;shape=mxgraph.aws4.group;grIcon=mxgraph.aws4.group_security_group;grStroke=0;strokeColor=#147EBA;fillColor=#E6F2F8;verticalAlign=top;align=left;spacingLeft=30;fontColor=#147EBA;dashed=0;" vertex="1" parent="Jc-0d1ceG-MSq5w1KdFc-5">
          <mxGeometry x="60" y="320" width="145" height="300" as="geometry" />
        </mxCell>
        <mxCell id="Jc-0d1ceG-MSq5w1KdFc-22" value="EC2 Web Server" style="sketch=0;outlineConnect=0;fontColor=#232F3E;gradientColor=none;fillColor=#D45B07;strokeColor=none;dashed=0;verticalLabelPosition=bottom;verticalAlign=top;align=center;html=1;fontSize=12;fontStyle=0;aspect=fixed;pointerEvents=1;shape=mxgraph.aws4.instance2;" vertex="1" parent="Jc-0d1ceG-MSq5w1KdFc-12">
          <mxGeometry x="55" y="65.5" width="29" height="29" as="geometry" />
        </mxCell>
        <mxCell id="Jc-0d1ceG-MSq5w1KdFc-35" value="" style="sketch=0;points=[[0,0,0],[0.25,0,0],[0.5,0,0],[0.75,0,0],[1,0,0],[0,1,0],[0.25,1,0],[0.5,1,0],[0.75,1,0],[1,1,0],[0,0.25,0],[0,0.5,0],[0,0.75,0],[1,0.25,0],[1,0.5,0],[1,0.75,0]];outlineConnect=0;fontColor=#232F3E;gradientColor=#4D72F3;gradientDirection=north;fillColor=#3334B9;strokeColor=#ffffff;dashed=0;verticalLabelPosition=bottom;verticalAlign=top;align=center;html=1;fontSize=12;fontStyle=0;aspect=fixed;shape=mxgraph.aws4.resourceIcon;resIcon=mxgraph.aws4.database;" vertex="1" parent="Jc-0d1ceG-MSq5w1KdFc-12">
          <mxGeometry x="50.5" y="210" width="38" height="38" as="geometry" />
        </mxCell>
        <mxCell id="Jc-0d1ceG-MSq5w1KdFc-14" value="Auto Scaling" style="sketch=0;points=[[0,0,0],[0.25,0,0],[0.5,0,0],[0.75,0,0],[1,0,0],[0,1,0],[0.25,1,0],[0.5,1,0],[0.75,1,0],[1,1,0],[0,0.25,0],[0,0.5,0],[0,0.75,0],[1,0.25,0],[1,0.5,0],[1,0.75,0]];outlineConnect=0;fontColor=#232F3E;gradientColor=#F78E04;gradientDirection=north;fillColor=#D05C17;strokeColor=#ffffff;dashed=0;verticalLabelPosition=bottom;verticalAlign=top;align=center;html=1;fontSize=12;fontStyle=0;aspect=fixed;shape=mxgraph.aws4.resourceIcon;resIcon=mxgraph.aws4.auto_scaling3;" vertex="1" parent="Jc-0d1ceG-MSq5w1KdFc-5">
          <mxGeometry x="290" y="279" width="40" height="40" as="geometry" />
        </mxCell>
        <mxCell id="Jc-0d1ceG-MSq5w1KdFc-18" value="ELB" style="sketch=0;points=[[0,0,0],[0.25,0,0],[0.5,0,0],[0.75,0,0],[1,0,0],[0,1,0],[0.25,1,0],[0.5,1,0],[0.75,1,0],[1,1,0],[0,0.25,0],[0,0.5,0],[0,0.75,0],[1,0.25,0],[1,0.5,0],[1,0.75,0]];outlineConnect=0;fontColor=#232F3E;gradientColor=#F78E04;gradientDirection=north;fillColor=#D05C17;strokeColor=#ffffff;dashed=0;verticalLabelPosition=bottom;verticalAlign=top;align=center;html=1;fontSize=12;fontStyle=0;aspect=fixed;shape=mxgraph.aws4.resourceIcon;resIcon=mxgraph.aws4.elastic_load_balancing;" vertex="1" parent="Jc-0d1ceG-MSq5w1KdFc-5">
          <mxGeometry x="290" y="140" width="40" height="40" as="geometry" />
        </mxCell>
        <mxCell id="Jc-0d1ceG-MSq5w1KdFc-3" value="Cloud9" style="sketch=0;points=[[0,0,0],[0.25,0,0],[0.5,0,0],[0.75,0,0],[1,0,0],[0,1,0],[0.25,1,0],[0.5,1,0],[0.75,1,0],[1,1,0],[0,0.25,0],[0,0.5,0],[0,0.75,0],[1,0.25,0],[1,0.5,0],[1,0.75,0]];outlineConnect=0;fontColor=#232F3E;gradientColor=#4D72F3;gradientDirection=north;fillColor=#3334B9;strokeColor=#ffffff;dashed=0;verticalLabelPosition=bottom;verticalAlign=top;align=center;html=1;fontSize=12;fontStyle=0;aspect=fixed;shape=mxgraph.aws4.resourceIcon;resIcon=mxgraph.aws4.cloud9;" vertex="1" parent="Jc-0d1ceG-MSq5w1KdFc-5">
          <mxGeometry x="457.25" y="165" width="38" height="38" as="geometry" />
        </mxCell>
        <mxCell id="Jc-0d1ceG-MSq5w1KdFc-21" value="Auto Scaling&#xa;Security group" style="fillColor=none;strokeColor=#DD3522;verticalAlign=top;fontStyle=0;fontColor=#DD3522;" vertex="1" parent="Jc-0d1ceG-MSq5w1KdFc-5">
          <mxGeometry x="259" y="239" width="104" height="104" as="geometry" />
        </mxCell>
        <mxCell id="Jc-0d1ceG-MSq5w1KdFc-19" value="ELB&#xa;Security group" style="fillColor=none;strokeColor=#DD3522;verticalAlign=top;fontStyle=0;fontColor=#DD3522;" vertex="1" parent="Jc-0d1ceG-MSq5w1KdFc-5">
          <mxGeometry x="258" y="98" width="104" height="104" as="geometry" />
        </mxCell>
        <mxCell id="Jc-0d1ceG-MSq5w1KdFc-31" value="Private subnet" style="points=[[0,0],[0.25,0],[0.5,0],[0.75,0],[1,0],[1,0.25],[1,0.5],[1,0.75],[1,1],[0.75,1],[0.5,1],[0.25,1],[0,1],[0,0.75],[0,0.5],[0,0.25]];outlineConnect=0;gradientColor=none;html=1;whiteSpace=wrap;fontSize=12;fontStyle=0;container=1;pointerEvents=0;collapsible=0;recursiveResize=0;shape=mxgraph.aws4.group;grIcon=mxgraph.aws4.group_security_group;grStroke=0;strokeColor=#147EBA;fillColor=#E6F2F8;verticalAlign=top;align=left;spacingLeft=30;fontColor=#147EBA;dashed=0;" vertex="1" parent="1">
          <mxGeometry x="620" y="420" width="150" height="300" as="geometry" />
        </mxCell>
        <mxCell id="Jc-0d1ceG-MSq5w1KdFc-32" value="EC2 Web Server" style="sketch=0;outlineConnect=0;fontColor=#232F3E;gradientColor=none;fillColor=#D45B07;strokeColor=none;dashed=0;verticalLabelPosition=bottom;verticalAlign=top;align=center;html=1;fontSize=12;fontStyle=0;aspect=fixed;pointerEvents=1;shape=mxgraph.aws4.instance2;" vertex="1" parent="Jc-0d1ceG-MSq5w1KdFc-31">
          <mxGeometry x="63" y="64.5" width="29" height="29" as="geometry" />
        </mxCell>
        <mxCell id="Jc-0d1ceG-MSq5w1KdFc-36" value="" style="sketch=0;points=[[0,0,0],[0.25,0,0],[0.5,0,0],[0.75,0,0],[1,0,0],[0,1,0],[0.25,1,0],[0.5,1,0],[0.75,1,0],[1,1,0],[0,0.25,0],[0,0.5,0],[0,0.75,0],[1,0.25,0],[1,0.5,0],[1,0.75,0]];outlineConnect=0;fontColor=#232F3E;gradientColor=#4D72F3;gradientDirection=north;fillColor=#3334B9;strokeColor=#ffffff;dashed=0;verticalLabelPosition=bottom;verticalAlign=top;align=center;html=1;fontSize=12;fontStyle=0;aspect=fixed;shape=mxgraph.aws4.resourceIcon;resIcon=mxgraph.aws4.database;" vertex="1" parent="Jc-0d1ceG-MSq5w1KdFc-31">
          <mxGeometry x="58.5" y="210" width="38" height="38" as="geometry" />
        </mxCell>
        <mxCell id="Jc-0d1ceG-MSq5w1KdFc-37" value="Database&#xa;Security Group" style="fillColor=none;strokeColor=#DD3522;verticalAlign=top;fontStyle=0;fontColor=#DD3522;" vertex="1" parent="1">
          <mxGeometry x="290" y="602" width="470" height="90" as="geometry" />
        </mxCell>
        <mxCell id="Jc-0d1ceG-MSq5w1KdFc-34" value="Application &#xa;Security Group" style="fillColor=none;strokeColor=#DD3522;verticalAlign=top;fontStyle=0;fontColor=#DD3522;" vertex="1" parent="1">
          <mxGeometry x="290" y="470" width="470" height="90" as="geometry" />
        </mxCell>
        <mxCell id="Jc-0d1ceG-MSq5w1KdFc-42" style="edgeStyle=orthogonalEdgeStyle;rounded=0;orthogonalLoop=1;jettySize=auto;html=1;entryX=0.5;entryY=1;entryDx=0;entryDy=0;entryPerimeter=0;" edge="1" parent="1" source="Jc-0d1ceG-MSq5w1KdFc-38" target="Jc-0d1ceG-MSq5w1KdFc-3">
          <mxGeometry relative="1" as="geometry">
            <mxPoint x="920.0000000000001" y="526.9250000000001" as="targetPoint" />
            <Array as="points">
              <mxPoint x="890" y="527" />
              <mxPoint x="890" y="390" />
              <mxPoint x="696" y="390" />
            </Array>
          </mxGeometry>
        </mxCell>
        <mxCell id="Jc-0d1ceG-MSq5w1KdFc-44" value="" style="edgeStyle=orthogonalEdgeStyle;rounded=0;orthogonalLoop=1;jettySize=auto;html=1;" edge="1" parent="1" source="Jc-0d1ceG-MSq5w1KdFc-38">
          <mxGeometry relative="1" as="geometry">
            <mxPoint x="960" y="650" as="targetPoint" />
          </mxGeometry>
        </mxCell>
        <mxCell id="Jc-0d1ceG-MSq5w1KdFc-45" style="edgeStyle=orthogonalEdgeStyle;rounded=0;orthogonalLoop=1;jettySize=auto;html=1;entryX=1;entryY=0.25;entryDx=0;entryDy=0;entryPerimeter=0;" edge="1" parent="1" source="Jc-0d1ceG-MSq5w1KdFc-38" target="Jc-0d1ceG-MSq5w1KdFc-36">
          <mxGeometry relative="1" as="geometry">
            <Array as="points">
              <mxPoint x="890" y="527" />
              <mxPoint x="890" y="640" />
              <mxPoint x="716" y="640" />
            </Array>
          </mxGeometry>
        </mxCell>
        <mxCell id="Jc-0d1ceG-MSq5w1KdFc-38" value="Inventory&lt;br&gt;Application Role" style="sketch=0;outlineConnect=0;fontColor=#232F3E;gradientColor=none;fillColor=#BF0816;strokeColor=none;dashed=0;verticalLabelPosition=bottom;verticalAlign=top;align=center;html=1;fontSize=12;fontStyle=0;aspect=fixed;pointerEvents=1;shape=mxgraph.aws4.role;" vertex="1" parent="1">
          <mxGeometry x="930" y="510" width="60" height="33.85" as="geometry" />
        </mxCell>
        <mxCell id="Jc-0d1ceG-MSq5w1KdFc-39" value="Parameter&lt;br&gt;Store" style="sketch=0;outlineConnect=0;fontColor=#232F3E;gradientColor=none;fillColor=#B0084D;strokeColor=none;dashed=0;verticalLabelPosition=bottom;verticalAlign=top;align=center;html=1;fontSize=12;fontStyle=0;aspect=fixed;pointerEvents=1;shape=mxgraph.aws4.parameter_store;" vertex="1" parent="1">
          <mxGeometry x="940" y="660" width="57.69" height="60" as="geometry" />
        </mxCell>
        <mxCell id="Jc-0d1ceG-MSq5w1KdFc-40" value="VPC" style="points=[[0,0],[0.25,0],[0.5,0],[0.75,0],[1,0],[1,0.25],[1,0.5],[1,0.75],[1,1],[0.75,1],[0.5,1],[0.25,1],[0,1],[0,0.75],[0,0.5],[0,0.25]];outlineConnect=0;gradientColor=none;html=1;whiteSpace=wrap;fontSize=12;fontStyle=0;container=1;pointerEvents=0;collapsible=0;recursiveResize=0;shape=mxgraph.aws4.group;grIcon=mxgraph.aws4.group_vpc;strokeColor=#248814;fillColor=none;verticalAlign=top;align=left;spacingLeft=30;fontColor=#AAB7B8;dashed=0;" vertex="1" parent="1">
          <mxGeometry x="230" y="160" width="590" height="570" as="geometry" />
        </mxCell>
      </root>
    </mxGraphModel>
  </diagram>
</mxfile>
